<svg xmlns="http://www.w3.org/2000/svg" width="99" height="38"><g fill="none" fill-rule="evenodd"><g fill="#35CEFF"><path fill-rule="nonzero" d="M45.89 18.52c-1.69 0-3.396-.59-4.736-1.787l1.451-1.738c1.005.83 2.058 1.356 3.333 1.356 1.005 0 1.611-.399 1.611-1.085 0-.622-.383-.94-2.249-1.419-2.248-.574-3.7-1.196-3.7-3.444 0-2.026 1.627-3.365 3.908-3.365 1.626 0 3.014.51 4.146 1.419l-1.276 1.85c-.988-.686-1.961-1.1-2.902-1.1-.941 0-1.435.43-1.435 1.004 0 .734.478.973 2.408 1.467 2.264.59 3.54 1.404 3.54 3.381 0 2.217-1.69 3.46-4.098 3.46zm11.658.031c-3.445 0-5.917-2.567-5.917-5.772 0-3.174 2.504-5.773 5.949-5.773 3.444 0 5.916 2.567 5.916 5.773 0 3.173-2.504 5.772-5.948 5.772zm.032-2.264c1.977 0 3.348-1.563 3.348-3.508 0-1.914-1.403-3.509-3.38-3.509-1.978 0-3.35 1.563-3.35 3.509 0 1.913 1.404 3.508 3.382 3.508zm8.1 2.073V7.197h2.456v8.93h5.566v2.233H65.68zm8.915 0l4.784-11.243h2.264l4.784 11.243H83.86l-1.02-2.504h-4.72l-1.021 2.504h-2.504zm4.401-4.672h2.966l-1.483-3.62-1.483 3.62zm9.154 4.672V7.197h5.103c1.419 0 2.52.399 3.253 1.132.622.622.957 1.5.957 2.584 0 1.802-.973 2.934-2.392 3.46l2.727 3.987h-2.87l-2.425-3.572h-1.897v3.572H88.15zm2.456-5.74h2.487c1.196 0 1.882-.639 1.882-1.612 0-1.052-.734-1.594-1.93-1.594h-2.44v3.205z"/><path d="M17.39 34.302c-8.224 0-14.913-6.69-14.913-14.913 0-3.962 1.555-7.565 4.085-10.238.118.028.24.047.367.047.868 0 1.57-.703 1.57-1.57 0-.066-.01-.128-.018-.19a14.834 14.834 0 0 1 8.908-2.961c8.223 0 14.913 6.69 14.913 14.912 0 8.223-6.69 14.913-14.913 14.913M17.39 3c-3.658 0-7.036 1.2-9.763 3.226a1.549 1.549 0 0 0-.697-.17 1.57 1.57 0 0 0-1.57 1.571c0 .188.037.366.098.533A16.326 16.326 0 0 0 1 19.39c0 9.051 7.338 16.39 16.39 16.39 9.05 0 16.388-7.339 16.388-16.39S26.44 3 17.39 3"/><path d="M17.39 30.805c-.9 0-1.775-.108-2.616-.305.003-.033.01-.063.01-.096 0-.868-.703-1.571-1.57-1.571-.504 0-.946.24-1.233.607-3.574-1.93-6.008-5.712-6.008-10.05 0-6.296 5.121-11.417 11.416-11.417s11.416 5.121 11.416 11.416-5.121 11.416-11.416 11.416m0-23.962c-6.93 0-12.546 5.617-12.546 12.546 0 4.863 2.768 9.077 6.814 11.16a1.566 1.566 0 0 0 1.556 1.426c.415 0 .79-.164 1.07-.427.994.252 2.034.387 3.106.387 6.93 0 12.546-5.617 12.546-12.546 0-6.929-5.617-12.546-12.546-12.546"/><path d="M17.39 27.477c-4.461 0-8.09-3.628-8.09-8.088 0-4.46 3.629-8.088 8.09-8.088 2.337 0 4.445.998 5.923 2.589-.201.264-.325.589-.325.946a1.571 1.571 0 0 0 1.902 1.535c.378.933.587 1.951.587 3.018 0 4.46-3.628 8.088-8.088 8.088M25.607 16c.319-.288.523-.7.523-1.163a1.571 1.571 0 0 0-2.183-1.447 8.889 8.889 0 1 0-6.557 14.89 8.89 8.89 0 0 0 8.217-12.28"/><path d="M17.39 16.764a2.625 2.625 0 1 0-.001 5.25 2.625 2.625 0 0 0 0-5.25"/></g><path fill="#0381A9" fill-rule="nonzero" d="M41.468 30.48v-8.232h3.21c2.588 0 4.375 1.776 4.375 4.116 0 2.317-1.787 4.116-4.375 4.116h-3.21zm1.81-1.635h1.4c1.482 0 2.482-1 2.482-2.481 0-1.458-1-2.481-2.482-2.481h-1.4v4.962zm11.62 1.776c-2.54 0-4.363-1.893-4.363-4.257 0-2.34 1.846-4.257 4.386-4.257s4.363 1.893 4.363 4.257c0 2.34-1.846 4.257-4.386 4.257zm.023-1.67c1.459 0 2.47-1.152 2.47-2.587 0-1.411-1.035-2.587-2.493-2.587s-2.47 1.152-2.47 2.587c0 1.411 1.035 2.587 2.493 2.587zm10.067 1.67c-2.423 0-4.222-1.87-4.222-4.257 0-2.34 1.764-4.257 4.292-4.257 1.553 0 2.423.588 3.187 1.34l-1.082 1.247c-.635-.576-1.176-.917-2.116-.917-1.388 0-2.388 1.152-2.388 2.587 0 1.411.976 2.587 2.388 2.587.94 0 1.517-.376 2.163-.964l1.153 1.235c-.847.905-1.788 1.4-3.375 1.4zm7.985-.023a5.238 5.238 0 0 1-3.493-1.318L70.55 28c.741.611 1.517 1 2.458 1 .741 0 1.188-.295 1.188-.8 0-.46-.282-.694-1.658-1.047-1.658-.423-2.729-.882-2.729-2.54 0-1.494 1.2-2.482 2.882-2.482 1.2 0 2.222.377 3.057 1.047l-.94 1.364c-.73-.505-1.447-.811-2.14-.811-.695 0-1.06.317-1.06.74 0 .542.354.718 1.776 1.083 1.67.435 2.611 1.034 2.611 2.493 0 1.634-1.246 2.552-3.022 2.552z"/></g></svg>